HIERARCHY
ROOT SpineBase
{
  OFFSET 0.000000 0.000000 0.000000
  CHANNELS 6 Xposition Yposition Zposition Zrotation Xrotation Yrotation
  JOINT SpineMid
  {
    OFFSET 0.000000 33.886751 0.000000
    CHANNELS 3 Zrotation Xrotation Yrotation
    JOINT SpineShoulder
    {
      OFFSET 0.133347 25.134228 -0.769445
      CHANNELS 3 Zrotation Xrotation Yrotation
      JOINT Neck
      {
        OFFSET 0.030698 8.252359 -0.595233
        CHANNELS 3 Zrotation Xrotation Yrotation
        JOINT Head
        {
          OFFSET -4.032445 10.851977 3.676158
          CHANNELS 3 Zrotation Xrotation Yrotation
          End Site
          {
            OFFSET 0 0 0
          }
        }
      }
      JOINT ShoulderLeft
      {
        OFFSET 2.525162 -10.522980 24.678189
        CHANNELS 3 Zrotation Xrotation Yrotation
        JOINT ElbowLeft
        {
          OFFSET -7.233884 -7.680717 -27.958300
          CHANNELS 3 Zrotation Xrotation Yrotation
          JOINT WristLeft
          {
            OFFSET -3.517227 -3.732798 -25.008729
            CHANNELS 3 Zrotation Xrotation Yrotation
            JOINT HandLeft
            {
              OFFSET -2.410042 -2.976476 -1.060984
              CHANNELS 3 Zrotation Xrotation Yrotation
              JOINT HandTipLeft
              {
                OFFSET -2.792198 -4.660705 -2.269146
                CHANNELS 3 Zrotation Xrotation Yrotation
                End Site
                {
                  OFFSET 0 0 0
                }
              }
              JOINT ThumbLeft
              {
                OFFSET -2.605357 4.825795 -3.000612
                CHANNELS 3 Zrotation Xrotation Yrotation
                End Site
                {
                  OFFSET 0 0 0
                }
              }
            }
          }
        }
      }
      JOINT ShoulderRight
      {
        OFFSET 6.177997 -6.606200 -11.089203
        CHANNELS 3 Zrotation Xrotation Yrotation
        JOINT ElbowRight
        {
          OFFSET -10.070023 -16.582039 -12.724893
          CHANNELS 3 Zrotation Xrotation Yrotation
          JOINT WristRight
          {
            OFFSET -11.394622 17.494794 -4.107663
            CHANNELS 3 Zrotation Xrotation Yrotation
            JOINT HandRight
            {
              OFFSET 2.876348 6.770529 3.008979
              CHANNELS 3 Zrotation Xrotation Yrotation
              JOINT HandTipRight
              {
                OFFSET 0.840091 6.425514 2.808236
                CHANNELS 3 Zrotation Xrotation Yrotation
                End Site
                {
                  OFFSET 0 0 0
                }
              }
              JOINT ThumbRight
              {
                OFFSET -2.992277 0.443138 -3.135828
                CHANNELS 3 Zrotation Xrotation Yrotation
                End Site
                {
                  OFFSET 0 0 0
                }
              }
            }
          }
        }
      }
    }
  }
  JOINT HipLeft
  {
    OFFSET -0.264713 0.758046 1.895898
    CHANNELS 3 Zrotation Xrotation Yrotation
    JOINT KneeLeft
    {
      OFFSET 13.215272 -41.698961 13.961095
      CHANNELS 3 Zrotation Xrotation Yrotation
      JOINT AnkleLeft
      {
        OFFSET 3.403005 -42.535361 1.660471
        CHANNELS 3 Zrotation Xrotation Yrotation
        JOINT FootLeft
        {
          OFFSET -1.123895 -1.049608 -13.291036
          CHANNELS 3 Zrotation Xrotation Yrotation
          End Site
          {
            OFFSET 0 0 0
          }
        }
      }
    }
  }
  JOINT HipRight
  {
    OFFSET 0.761512 0.492996 -9.525408
    CHANNELS 3 Zrotation Xrotation Yrotation
    JOINT KneeRight
    {
      OFFSET 4.125292 -45.846097 1.355612
      CHANNELS 3 Zrotation Xrotation Yrotation
      JOINT AnkleRight
      {
        OFFSET 4.983013 -35.170273 6.980664
        CHANNELS 3 Zrotation Xrotation Yrotation
        JOINT FootRight
        {
          OFFSET -2.837119 -6.383512 -2.709310
          CHANNELS 3 Zrotation Xrotation Yrotation
          End Site
          {
            OFFSET 0 0 0
          }
        }
      }
    }
  }
}
MOTION
Frames: 12
Frame Time: 0.033333
-20.881052 89.551835 314.064497 -0.000000 0.000000 84.865655 -0.000000 0.000000 -84.865655 -0.000000 0.000000 0.000000 -0.000000 0.000000 0.000000 0.000000 0.000000 0.000000 -0.000000 0.000000 0.000000 -0.000000 0.000000 0.000000 -0.000000 0.000000 0.000000 -0.000000 0.000000 0.000000 0.000000 0.000000 0.000000 0.000000 0.000000 0.000000 -0.000000 0.000000 0.000000 -0.000000 0.000000 0.000000 -0.000000 0.000000 0.000000 -0.000000 0.000000 0.000000 0.000000 0.000000 0.000000 0.000000 0.000000 0.000000 -0.000000 0.000000 -84.865655 -0.000000 0.000000 0.000000 -0.000000 0.000000 0.000000 0.000000 0.000000 0.000000 -0.000000 0.000000 -84.865655 -0.000000 0.000000 0.000000 -0.000000 0.000000 0.000000 0.000000 0.000000 0.000000
-20.901025 89.493928 314.061871 -0.021179 -0.043789 84.755297 0.045541 -0.017088 -84.755299 -0.000000 0.000000 0.000000 -0.000000 0.000000 0.000000 0.000000 0.000000 0.000000 -0.000000 0.000000 0.000000 -0.000000 0.000000 0.000000 0.732698 -3.362411 2.522694 5.569024 -1.099038 -3.208129 0.000000 0.000000 0.000000 0.000000 0.000000 0.000000 -0.903479 0.636209 0.309189 0.129078 0.265663 0.106633 -1.994574 0.138670 0.363716 4.001043 0.181424 -1.448236 0.000000 0.000000 0.000000 0.000000 0.000000 0.000000 0.045541 -0.017088 -84.755299 -0.000000 0.000000 0.000000 0.136657 -5.543178 10.898524 0.000000 0.000000 0.000000 0.045541 -0.017088 -84.755299 -0.000000 0.000000 0.000000 -0.325421 -1.731882 0.907641 0.000000 0.000000 0.000000
-20.915682 89.442156 314.061719 -0.033616 -0.080063 84.662159 0.082843 -0.026022 -84.662164 -0.000000 0.000000 0.000000 -0.000000 0.000000 0.000000 0.000000 0.000000 0.000000 -0.000000 0.000000 0.000000 0.214235 -1.199701 -0.326062 1.321327 -5.061033 5.065943 9.901849 -2.249943 -6.193188 0.000000 0.000000 0.000000 0.000000 0.000000 0.000000 -1.646105 1.112573 0.593992 0.526156 0.569027 0.275660 -4.014866 -0.183297 0.720871 7.477063 0.204212 -2.788696 0.000000 0.000000 0.000000 0.000000 0.000000 0.000000 0.082843 -0.026022 -84.662164 -0.000000 0.000000 0.000000 1.620218 -11.931254 21.969693 0.000000 0.000000 0.000000 0.082843 -0.026022 -84.662164 -0.000000 0.000000 0.000000 -0.585882 -2.987176 1.575076 0.000000 0.000000 0.000000
-20.925024 89.396517 314.064043 -0.037314 -0.108822 84.587502 0.111856 -0.026883 -84.587511 -0.000000 0.000000 0.000000 -0.000000 0.000000 0.000000 0.000000 0.000000 0.000000 -0.000000 0.000000 0.000000 0.246994 -1.368019 -0.395181 1.976816 -7.024854 6.814622 12.740729 -3.086414 -8.554690 0.000000 0.000000 0.000000 0.000000 0.000000 0.000000 -2.235109 1.437494 0.852133 1.204645 0.901465 0.503594 -6.015161 -0.992350 1.043916 10.338050 0.103933 -4.064882 0.000000 0.000000 0.000000 0.000000 0.000000 0.000000 0.111856 -0.026883 -84.587511 -0.489000 0.668529 0.037270 4.847016 -18.931593 31.464805 0.000000 0.000000 0.000000 0.111856 -0.026883 -84.587511 -0.000000 0.000000 0.000000 -0.793580 -3.735103 1.992824 0.000000 0.000000 0.000000
-20.929051 89.357012 314.068842 -0.032276 -0.130065 84.532203 0.132549 -0.019736 -84.532217 -0.000000 0.000000 0.000000 -0.000000 0.000000 0.000000 0.000000 0.000000 0.000000 -0.000000 0.000000 0.000000 0.232469 -1.253652 -0.404023 2.423273 -8.301926 7.760396 14.102662 -3.332296 -10.012004 0.000000 0.000000 0.000000 0.000000 0.000000 0.000000 -2.675798 1.616989 1.082378 2.176136 1.258221 0.784670 -7.965816 -2.300114 1.317492 12.513402 -0.085762 -5.309391 0.000000 0.000000 0.000000 0.000000 0.000000 0.000000 0.132549 -0.019736 -84.532217 -0.602598 0.753168 0.040722 8.269731 -24.764194 37.820751 0.000000 0.000000 0.000000 0.132549 -0.019736 -84.532217 -0.000000 0.000000 0.000000 -0.956032 -3.957972 2.155908 0.000000 0.000000 0.000000
-20.927762 89.323641 314.076116 -0.018508 -0.143795 84.496721 0.144907 -0.004633 -84.496739 -0.000000 0.000000 0.000000 -0.914879 0.130984 0.360573 0.000000 0.000000 0.000000 -0.000000 0.000000 0.000000 0.170262 -0.854673 -0.352198 2.579031 -8.835033 7.820963 14.088817 -2.853801 -10.447244 0.000000 0.000000 0.000000 0.000000 0.000000 0.000000 -2.971567 1.654696 1.284324 3.450483 1.637787 1.110607 -9.850001 -4.105382 1.539852 13.946623 -0.328869 -6.536076 0.000000 0.000000 0.000000 0.000000 0.000000 0.000000 0.144907 -0.004633 -84.496739 -0.687121 0.760950 0.038648 11.316659 -29.993986 39.841847 0.000000 0.000000 0.000000 0.144907 -0.004633 -84.496739 -0.000000 0.000000 0.000000 -1.074951 -3.649689 2.063713 0.000000 0.000000 0.000000
-20.930016 89.316696 314.093392 -0.004659 -0.165279 84.445122 0.164954 0.011362 -84.445145 -0.000000 0.000000 0.000000 -1.236485 -0.014777 0.414911 0.000000 0.000000 0.000000 -0.000000 0.000000 0.000000 0.338459 -1.318845 -1.109572 -4.939175 -5.172022 7.728047 17.067700 -2.707023 -9.557255 0.000000 0.000000 0.000000 0.000000 0.000000 0.000000 -2.206416 1.174423 0.983512 6.293925 1.800170 1.950858 -14.349193 -5.498622 1.901010 16.287797 -3.456181 -8.091895 0.000000 0.000000 0.000000 0.000000 0.000000 0.000000 0.164954 0.011362 -84.445145 -0.743358 0.661920 0.028253 12.293253 -33.857018 35.643892 0.000000 0.000000 0.000000 0.164954 0.011362 -84.445145 -0.000000 0.000000 0.000000 -1.101019 -3.167234 1.858601 0.000000 0.000000 0.000000
-20.952815 89.208465 314.066080 -0.036024 -0.173487 84.383210 0.176180 -0.018871 -84.383236 -0.000000 0.000000 0.000000 -1.622595 0.007417 0.555466 0.000000 0.000000 0.000000 -0.000000 0.000000 0.000000 -0.000000 0.000000 0.000000 0.136138 -5.631128 4.604054 10.114174 -0.424722 -7.111486 0.000000 0.000000 0.000000 0.000000 0.000000 0.000000 -2.686797 1.128674 1.373217 8.220102 2.445058 2.273916 -17.445149 -8.309488 2.312504 16.986134 -2.490220 -9.726927 0.000000 0.000000 0.000000 0.000000 0.000000 0.000000 0.176180 -0.018871 -84.383236 -0.755349 0.490783 0.013022 10.441597 -41.663233 18.749357 0.000000 0.000000 0.000000 0.176180 -0.018871 -84.383236 -0.000000 0.000000 0.000000 -1.328187 -1.584872 1.250649 0.000000 0.000000 0.000000
-20.960522 89.179830 314.050361 -0.032247 -0.169886 84.389588 0.172225 -0.015483 -84.389613 -0.000000 0.000000 0.000000 -2.055978 0.175661 0.769693 0.000000 0.000000 0.000000 -0.000000 0.000000 0.000000 -0.000000 0.000000 0.000000 7.437655 -8.931345 5.621295 -0.717148 5.945654 -6.476939 0.000000 0.000000 0.000000 0.000000 0.000000 0.000000 -3.726148 1.242914 2.087176 9.632645 3.135191 2.240096 -18.226244 -12.181288 2.454793 17.735409 -1.983878 -11.730249 0.000000 0.000000 0.000000 0.000000 0.000000 0.000000 0.172225 -0.015483 -84.389613 -0.000000 0.000000 0.000000 1.718681 -37.372508 -6.152579 0.000000 0.000000 0.000000 0.172225 -0.015483 -84.389613 -0.000000 0.000000 0.000000 -0.000000 0.000000 0.000000 0.000000 0.000000 0.000000
-20.880721 89.245336 314.094595 0.101189 -0.126819 84.564552 0.116664 0.112747 -84.564555 -0.000000 0.000000 0.000000 -2.383027 0.453885 0.991786 0.000000 0.000000 0.000000 -0.263434 -0.135169 1.088197 -0.086494 1.426855 0.130740 6.060010 -9.909305 4.523751 -1.673180 7.528948 -6.290027 0.000000 0.000000 0.000000 0.000000 0.000000 0.000000 -5.206025 1.659494 2.950469 11.478974 3.883729 2.392021 -16.006924 -19.100992 2.229837 14.297033 3.257164 -13.138336 0.000000 0.000000 0.000000 0.000000 0.000000 0.000000 0.116664 0.112747 -84.564555 -0.000000 0.000000 0.000000 0.379922 -29.225350 -11.792866 0.000000 0.000000 0.000000 0.116664 0.112747 -84.564555 -0.000000 0.000000 0.000000 -0.509354 2.885338 -1.040428 0.000000 0.000000 0.000000
-20.790368 89.319874 314.159667 0.258809 -0.071827 84.922707 0.048641 0.264150 -84.922657 -0.000000 0.000000 0.000000 -2.928265 0.122869 1.050543 0.000000 0.000000 0.000000 -0.748335 0.580607 2.128386 -0.152255 1.614222 1.733713 10.146207 -13.301442 3.019519 -8.913755 11.359434 -4.690631 0.000000 0.000000 0.000000 0.000000 0.000000 0.000000 -6.908992 2.373447 3.808425 8.811372 5.075775 2.085261 -9.152743 -25.608727 2.656896 11.429988 9.367457 -13.766002 0.000000 0.000000 0.000000 0.000000 0.000000 0.000000 0.048641 0.264150 -84.922657 -0.961192 0.332570 -0.008133 1.815262 -21.533180 -8.961368 0.000000 0.000000 0.000000 0.048641 0.264150 -84.922657 0.436629 -0.780874 -0.020959 -0.774233 5.267313 -1.775797 0.000000 0.000000 0.000000
-20.579466 89.502655 314.411353 0.607728 0.123049 85.318578 0.208460 -0.130814 -85.298459 0.029789 0.127241 0.032755 -3.847375 -0.368809 0.995689 0.000000 0.000000 0.000000 -2.193433 1.115392 3.399790 -0.544360 4.212831 3.522069 8.030863 -12.764309 -3.236656 -10.461612 9.571226 -1.747237 0.000000 0.000000 0.000000 0.000000 0.000000 0.000000 -10.194383 2.858722 5.010304 7.158864 5.402513 1.099223 -1.419570 -31.543153 4.132557 5.135971 14.428157 -11.484501 0.000000 0.000000 0.000000 0.000000 0.000000 0.000000 0.928291 1.428207 -85.215842 -0.332023 -0.594721 -0.127136 2.090284 -13.040869 -1.623801 0.000000 0.000000 0.000000 0.153890 1.694868 -85.319146 1.852839 -1.309638 0.038650 3.070520 4.608717 -3.497096 0.000000 0.000000 0.000000
